<svg xmlns="http://www.w3.org/2000/svg" width="320" height="320" viewBox="0 0 320 320">
  <g fill="none" stroke="white" stroke-opacity="0.05" stroke-width="1.2" stroke-linecap="round" stroke-linejoin="round">
    <!-- Cookie -->
    <circle cx="48" cy="48" r="18"/>
    <circle cx="40" cy="44" r="2"/>
    <circle cx="54" cy="40" r="2"/>
    <circle cx="58" cy="52" r="2"/>

    <!-- Rolling pin -->
    <rect x="94" y="30" rx="2" ry="2" width="60" height="10"/>
    <rect x="86" y="32" rx="2" ry="2" width="6" height="6"/>
    <rect x="156" y="32" rx="2" ry="2" width="6" height="6"/>

    <!-- Cupcake -->
    <path d="M210 46c8 0 14 6 14 14h-28c0-8 6-14 14-14z"/>
    <path d="M196 60h28l-4 18a6 6 0 0 1-5.8 4.5h-8.4A6 6 0 0 1 200 78z"/>

    <!-- Whisk -->
    <path d="M48 120c-8 8-8 20 0 28s20 8 28 0l36-36-14-14-36 36z"/>
    <path d="M92 104l14 14"/>

    <!-- Bread loaf -->
    <rect x="180" y="112" width="70" height="24" rx="12" ry="12"/>
    <path d="M198 112v24M216 112v24M234 112v24" />

    <!-- Croissant-ish -->
    <path d="M56 208c10-14 30-14 40 0-10 6-30 6-40 0z"/>
    <path d="M56 208c-4 8-4 16 0 24m40-24c4 8 4 16 0 24"/>

    <!-- Laptop -->
    <rect x="228" y="28" width="46" height="28" rx="2"/>
    <rect x="222" y="56" width="58" height="6" rx="1"/>

    <!-- Headphones -->
    <path d="M84 268a24 24 0 0 1 48 0"/>
    <rect x="80" y="268" width="12" height="16" rx="3"/>
    <rect x="124" y="268" width="12" height="16" rx="3"/>

    <!-- Mobile -->
    <rect x="256" y="200" width="24" height="44" rx="4"/>
    <circle cx="268" cy="236" r="1.6"/>

    <!-- Chocolate bar -->
    <rect x="140" y="206" width="28" height="18" rx="2"/>
    <path d="M140 212h28M154 206v18M168 206v18"/>

    <!-- Smileys -->
    <circle cx="300" cy="94" r="8"/>
    <path d="M296 92h0M304 92h0M296 96c4 4 8 4 12 0"/>
    <circle cx="22" cy="298" r="8"/>
    <path d="M18 296h0M26 296h0M18 300c4 4 8 4 12 0"/>
  </g>
</svg>